# xmcd
#
# Track frame offsets:
#	150
#	13914
#	28202
#	40946
#	54589
#	66161
#	77158
#	89013
#	101324
#	115849
#	128949
#	140595
#	151561
#	164340
#	177537
#	188280
#
# Disc length: 2684 seconds
#
# Revision: 1
# Processed by: cddbd v1.5.2PL0 Copyright (c) Steve Scherf et al.
# Submitted via: audiograbber 1.83.01
#
DISCID=d30a7a10
DTITLE=B. B. King - Sweet Little Angel
DYEAR=2008
DGENRE=Blues
TTITLE0=You Upset Me Baby
TTITLE1=Whole Lotta Love
TTITLE2=Every Day (I Have The Blues)
TTITLE3=Sneakin' Around
TTITLE4=Did You Ever Love A Woman?
TTITLE5=Let's Do The Boogie
TTITLE6=Dark Was The Night Part 1
TTITLE7=Dark Was The Night Part 2
TTITLE8=Sweet Little Angel
TTITLE9=Bad Luck
TTITLE10=Early In The Morning
TTITLE11=You Don't Know
TTITLE12=I Want To Get Married
TTITLE13=Troubles, Troubles, Troubles
TTITLE14=(I'M Gonna) Quit My Baby
TTITLE15=Be Careful With A Fool
EXTD=Sweet Little Angel 1954-1957\nLabel - Saga
EXTT0=
EXTT1=
EXTT2=
EXTT3=
EXTT4=
EXTT5=
EXTT6=
EXTT7=
EXTT8=
EXTT9=
EXTT10=
EXTT11=
EXTT12=
EXTT13=
EXTT14=
EXTT15=
PLAYORDER=
